<?xml version="1.0" standalone="no"?>
<!DOCTYPE svg PUBLIC "-//W3C//DTD SVG 1.0//EN" "http://www.w3.org/TR/2001/REC-SVG-20010904/DTD/svg10.dtd">
<svg xmlns="http://www.w3.org/2000/svg" xmlns:xlink="http://www.w3.org/1999/xlink" id="body_1" width="254" height="254">

<g transform="matrix(0.2504931 0 0 0.24950884 0 0)">
	<g transform="matrix(1 0 -0 -1 0 1018)">
        <path d="M213 508C 213 345.6283 344.6283 214 507 214C 669.3717 214 801 345.6283 801 508L801 508L801 510C 801 672.3717 669.3717 804 507 804C 344.6283 804 213 672.3717 213 510L213 510L213 508z" stroke="none" fill="#3E4062" fill-rule="nonzero" />
        <path d="M0.5 507C 0.5 227.26778 227.26778 0.5 507 0.5C 786.73224 0.5 1013.5 227.26778 1013.5 507L1013.5 507L1013.5 511C 1013.5 790.73224 786.73224 1017.5 507 1017.5C 227.26778 1017.5 0.5 790.73224 0.5 511L0.5 511L0.5 507z" stroke="#878D92" stroke-width="1" fill="none" />
        <path d="M170.5 508C 170.5 322.1562 321.1562 171.5 507 171.5C 692.8438 171.5 843.5 322.1562 843.5 508L843.5 508L843.5 510C 843.5 695.8438 692.8438 846.5 507 846.5C 321.1562 846.5 170.5 695.8438 170.5 510L170.5 510L170.5 508z" stroke="#878D92" stroke-width="1" fill="none" />
	</g>
</g>
</svg>